<svg width="18" height="18" viewBox="0 0 18 18" fill="none" xmlns="http://www.w3.org/2000/svg"><path d="M14.659 11.3439C15.5723 12.2594 15.5716 13.7421 14.6568 14.6569C13.742 15.5716 12.2593 15.5724 11.3441 14.659C11.3434 15.3047 11.0811 15.8901 10.6576 16.3135C10.2331 16.7377 9.64734 17.0001 8.99985 17.0001C7.7063 17.0001 6.65769 15.9522 6.65591 14.659C6.1987 15.1155 5.59949 15.3434 5.00063 15.3434C4.40178 15.3434 3.8008 15.1148 3.34287 14.6569C2.42844 13.7421 2.42773 12.2594 3.34074 11.3439C2.69503 11.3432 2.11003 11.0809 1.68653 10.6574C1.26233 10.2332 1 9.6475 1 9.00003C1 7.70651 2.04755 6.65792 3.34074 6.65614C2.88459 6.19894 2.65634 5.59974 2.65634 5.0009C2.65634 4.40206 2.8853 3.80109 3.34287 3.34318C4.25766 2.42841 5.74042 2.4277 6.65591 3.34105C6.65769 2.04788 7.7063 1 8.99985 1C10.2934 1 11.3424 2.04788 11.3441 3.34105C12.2593 2.4277 13.742 2.42841 14.6568 3.34318C15.5716 4.25794 15.5723 5.74066 14.659 6.65614C15.9522 6.65756 17.0001 7.70651 17.0001 9.00003C17.0001 10.2935 15.9522 11.3425 14.659 11.3439Z" fill="white" stroke="black" stroke-miterlimit="10" stroke-linejoin="round"></path><path d="M8.96868 11.0945C7.77666 11.0761 6.88636 10.1137 6.90766 8.94942C6.92861 7.80499 7.86505 6.88738 9.03471 6.9062C10.2363 6.92537 11.1053 7.88841 11.0922 8.99805C11.1092 10.1318 10.1962 11.1133 8.96868 11.0945Z" fill="black"></path></svg>
